<?xml version="1.0" encoding="UTF-8"?>
<svg xmlns="http://www.w3.org/2000/svg" xmlns:xlink="http://www.w3.org/1999/xlink" width="40pt" height="40pt" viewBox="0 0 40 40" version="1.1">
<g id="surface668">
<path style=" stroke:none;fill-rule:nonzero;fill:rgb(100%,100%,100%);fill-opacity:1;" d="M 8.949219 8.953125 C 2.847656 15.054688 2.847656 24.945312 8.953125 31.046875 C 15.054688 37.152344 24.945312 37.152344 31.046875 31.046875 C 37.148438 24.945312 37.148438 15.054688 31.046875 8.953125 C 24.945312 2.847656 15.054688 2.851562 8.949219 8.953125 Z M 8.949219 8.953125 "/>
<path style=" stroke:none;fill-rule:nonzero;fill:rgb(90.588235%,29.803922%,23.529412%);fill-opacity:1;" d="M 20 36.5625 C 15.5625 36.5625 11.40625 34.84375 8.28125 31.71875 C 1.8125 25.25 1.8125 14.75 8.28125 8.28125 C 11.40625 5.15625 15.5625 3.4375 20 3.4375 C 24.4375 3.4375 28.59375 5.15625 31.71875 8.28125 C 34.84375 11.40625 36.5625 15.5625 36.5625 20 C 36.5625 24.4375 34.84375 28.59375 31.71875 31.71875 C 28.59375 34.84375 24.4375 36.5625 20 36.5625 Z M 20 5.3125 C 16.0625 5.3125 12.375 6.84375 9.625 9.625 C 3.90625 15.34375 3.90625 24.65625 9.625 30.40625 C 12.375 33.15625 16.0625 34.6875 20 34.6875 C 23.9375 34.6875 27.625 33.15625 30.375 30.375 C 33.125 27.59375 34.6875 23.9375 34.6875 20 C 34.6875 16.0625 33.15625 12.375 30.375 9.625 C 27.59375 6.875 23.9375 5.3125 20 5.3125 Z M 20 5.3125 "/>
<path style=" stroke:none;fill-rule:nonzero;fill:rgb(90.588235%,29.803922%,23.529412%);fill-opacity:1;" d="M 16.6875 24.25 C 16.4375 24.25 16.21875 24.15625 16.03125 23.96875 C 15.65625 23.59375 15.65625 23 16.03125 22.65625 L 22.65625 16.03125 C 23.03125 15.65625 23.625 15.65625 23.96875 16.03125 C 24.34375 16.40625 24.34375 17 23.96875 17.34375 L 17.34375 23.96875 C 17.15625 24.15625 16.9375 24.25 16.6875 24.25 Z M 16.6875 24.25 "/>
<path style=" stroke:none;fill-rule:nonzero;fill:rgb(90.588235%,29.803922%,23.529412%);fill-opacity:1;" d="M 23.3125 24.25 C 23.0625 24.25 22.84375 24.15625 22.65625 23.96875 L 16.03125 17.34375 C 15.65625 16.96875 15.65625 16.375 16.03125 16.03125 C 16.40625 15.65625 17 15.65625 17.34375 16.03125 L 23.96875 22.65625 C 24.34375 23.03125 24.34375 23.625 23.96875 23.96875 C 23.78125 24.15625 23.5625 24.25 23.3125 24.25 Z M 23.3125 24.25 "/>
</g>
</svg>
